# xmcd CD database file
#
# Track frame offsets:
#	150
#	13562
#	23937
#	37090
#	45467
#	58005
#	69577
#	84840
#	97387
#	110380
#	121390
#	132542
#	144352
#	157915
#	172115
#	182802
#	195317
#	210537
#	223697
#	233650
#
# Disc length: 3251 seconds
#
# Revision: 5
# Processed by: cddbd v1.5.2PL0 Copyright (c) Steve Scherf et al.
# Submitted via: CDex 1.51
#
DISCID=1a0cb114
DTITLE=Various Artist - The Country Box 3_3
DYEAR=1995
DGENRE=Country
TTITLE0=Charlie Rich - The Most Beautiful Girl
TTITLE1=Patsy Cline - Too Many Secrets
TTITLE2=Crystal Gayle - Talking In Your Sleep
TTITLE3=Waylon Jennings - Jole Blon
TTITLE4=Wanda Jackson - Crazy
TTITLE5=Charley Pride - Louisiana Man
TTITLE6=Crystal Gayle - Ready For The Times To Get Better
TTITLE7=Kenny Rogers - Reuben James
TTITLE8=Johnny Cash - Ring Of Fire
TTITLE9=Carl Perkins - Memphis Tennessee
TTITLE10=Skeeter Davis - My Last Date With You
TTITLE11=Patsy Cline - Let The Teardrops Fall
TTITLE12=Jimmy Dean - Big Bad John
TTITLE13=Jo Anne Houston - Loving Him Was Easier
TTITLE14=Waylon Jennings - Sally Was A Good Old Girl
TTITLE15=Charlie Rich - Behind Closed Doors
TTITLE16=Kenny Rogers - For The Good Times
TTITLE17=Dottie West - D I V O R C E
TTITLE18=Willie Nelson - Broken Promises
TTITLE19=Ferlin Husky - Six Days On The Raod
EXTD=YEAR: 1995
EXTT0=
EXTT1=
EXTT2=
EXTT3=
EXTT4=
EXTT5=
EXTT6=
EXTT7=
EXTT8=
EXTT9=
EXTT10=
EXTT11=
EXTT12=
EXTT13=
EXTT14=
EXTT15=
EXTT16=
EXTT17=
EXTT18=
EXTT19=
PLAYORDER=
